<svg xmlns="http://www.w3.org/2000/svg" viewBox="0 0 1024 1024" role="img" aria-labelledby="title desc">
  <title id="title">SparkWeave app icon</title>
  <desc id="desc">Warm paper background with woven colored threads, small idea nodes, and a central spark.</desc>
  <defs>
    <radialGradient id="paperGlow" cx="35%" cy="24%" r="78%">
      <stop offset="0%" stop-color="#fffdf8"/>
      <stop offset="58%" stop-color="#f8f6f1"/>
      <stop offset="100%" stop-color="#efe7da"/>
    </radialGradient>
    <filter id="softShadow" x="-20%" y="-20%" width="140%" height="140%">
      <feDropShadow dx="0" dy="18" stdDeviation="18" flood-color="#312a1f" flood-opacity="0.16"/>
    </filter>
  </defs>
  <rect width="1024" height="1024" rx="220" fill="url(#paperGlow)"/>
  <path d="M198 650 C300 262 695 276 830 620" fill="none" stroke="#ffffff" stroke-width="54" stroke-linecap="round" opacity="0.72"/>
  <path d="M186 402 C376 766 666 766 838 386" fill="none" stroke="#ffffff" stroke-width="54" stroke-linecap="round" opacity="0.72"/>
  <g filter="url(#softShadow)" fill="none" stroke-linecap="round">
    <path d="M198 650 C300 262 695 276 830 620" stroke="#5d77a6" stroke-width="28"/>
    <path d="M186 402 C376 766 666 766 838 386" stroke="#c96f52" stroke-width="28"/>
    <path d="M278 758 C184 454 378 250 516 344 C672 452 704 608 560 704" stroke="#8ba596" stroke-width="24"/>
    <path d="M298 318 C470 662 654 262 766 526" stroke="#8c7ca8" stroke-width="22"/>
    <path d="M276 512 C410 404 610 408 748 516" stroke="#b2925b" stroke-width="18"/>
  </g>
  <g stroke-width="10">
    <circle cx="198" cy="650" r="34" fill="#fffdf8" stroke="#5d77a6"/>
    <circle cx="830" cy="620" r="34" fill="#fffdf8" stroke="#5d77a6"/>
    <circle cx="186" cy="402" r="31" fill="#fffdf8" stroke="#c96f52"/>
    <circle cx="838" cy="386" r="31" fill="#fffdf8" stroke="#c96f52"/>
    <circle cx="516" cy="344" r="29" fill="#fffdf8" stroke="#8ba596"/>
    <circle cx="560" cy="704" r="29" fill="#fffdf8" stroke="#8ba596"/>
  </g>
  <circle cx="512" cy="512" r="92" fill="#fffdf8" opacity="0.82"/>
  <path d="M512 388 L546 478 L636 512 L546 546 L512 636 L478 546 L388 512 L478 478 Z" fill="#b2925b"/>
  <path d="M512 445 L530 494 L579 512 L530 530 L512 579 L494 530 L445 512 L494 494 Z" fill="#fffdf8"/>
</svg>
